<svg width="32" height="32" viewBox="0 0 32 32" fill="none" xmlns="http://www.w3.org/2000/svg">
<path d="M8 10.5C8 10.2348 8.10536 9.98043 8.29289 9.79289C8.48043 9.60536 8.73478 9.5 9 9.5H23C23.2652 9.5 23.5196 9.60536 23.7071 9.79289C23.8946 9.98043 24 10.2348 24 10.5V14.5H8V10.5Z" stroke="#5E5C5A" stroke-width="2" stroke-linejoin="round"/>
<path d="M12 11V8M20 11V8" stroke="#5E5C5A" stroke-width="2" stroke-linecap="round"/>
<path d="M8 14.5H24V23.5C24 23.7652 23.8946 24.0196 23.7071 24.2071C23.5196 24.3946 23.2652 24.5 23 24.5H9C8.73478 24.5 8.48043 24.3946 8.29289 24.2071C8.10536 24.0196 8 23.7652 8 23.5V14.5Z" stroke="#5E5C5A" stroke-width="2" stroke-linejoin="round"/>
</svg>
